<svg width="22" height="12" viewBox="0 0 22 12" fill="none" xmlns="http://www.w3.org/2000/svg">
<path d="M21.7069 1.70786L11.7074 11.7067C11.6146 11.7997 11.5043 11.8734 11.3829 11.9238C11.2615 11.9741 11.1314 12 11 12C10.8686 12 10.7384 11.9741 10.6171 11.9238C10.4957 11.8734 10.3854 11.7997 10.2925 11.7067L0.29304 1.70786C0.10541 1.52024 0 1.26577 0 1.00044C0 0.735108 0.10541 0.480641 0.29304 0.293022C0.480671 0.105403 0.735153 0 1.0005 0C1.26585 0 1.52033 0.105403 1.70797 0.293022L11 9.58571L20.292 0.293022C20.3849 0.200122 20.4952 0.126431 20.6166 0.0761536C20.7379 0.0258767 20.8681 0 20.9994 0C21.1308 0 21.2609 0.0258767 21.3823 0.0761536C21.5037 0.126431 21.614 0.200122 21.7069 0.293022C21.7998 0.385922 21.8735 0.49621 21.9238 0.617589C21.9741 0.738968 21.9999 0.869062 21.9999 1.00044C21.9999 1.13182 21.9741 1.26191 21.9238 1.38329C21.8735 1.50467 21.7998 1.61496 21.7069 1.70786Z" fill="white"/>
</svg>
