<svg width="201" height="22" viewBox="0 0 201 22" fill="none" xmlns="http://www.w3.org/2000/svg">
<path d="M2.93336 0.099988L0.18356 0.142703L0.0971787 2.606C-0.0323929 5.76699 -0.0323929 13.8688 0.0971787 17.998L0.18356 21.216L2.91896 21.1875L5.63996 21.1448L5.62557 12.986L5.59677 4.84147H10.0022C14.6236 4.84147 15.0123 4.88419 15.7466 5.52493C16.4808 6.17991 16.7831 7.87431 16.3368 8.92798C16.0345 9.63991 15.7322 9.95316 15.0411 10.2664C14.5372 10.4942 14.0477 10.537 10.9092 10.537H7.33879V12.8579V15.1788L11.6291 15.1218C16.38 15.0649 17.1718 14.9652 18.6259 14.1963C20.3103 13.3135 21.5629 11.6476 22.038 9.68263C22.4555 7.90279 22.1675 5.38254 21.3469 3.70238C20.8718 2.71991 19.5761 1.43843 18.5971 0.94007C17.0711 0.18542 16.4808 0.114226 10.866 0.0857496C8.01544 0.0572711 4.44503 0.0715094 2.93336 0.099988Z" fill="white"/>
<path d="M25.147 0.114221C24.9167 0.156937 24.9023 0.740724 24.9311 10.6509L24.9743 21.1448L27.7529 21.1875L30.517 21.216L30.5314 16.4175C30.5458 13.7691 30.5458 10.0813 30.517 8.21604L30.4883 4.84147H34.8649C39.112 4.84147 39.2559 4.85571 39.875 5.15472C41.2715 5.85242 41.689 7.94551 40.71 9.29818C40.091 10.1525 39.6159 10.2522 35.7287 10.2522H32.2447L32.2735 12.5588L32.3167 14.8798L33.6987 14.8228L35.0808 14.7801L36.4342 16.1755C37.1828 16.9586 38.5937 18.3967 39.5727 19.3934L41.3723 21.216H44.8131C47.0446 21.216 48.2252 21.159 48.1964 21.0736C48.1676 20.9882 46.7135 19.4646 44.9427 17.6705C43.1863 15.8765 41.7466 14.3814 41.7466 14.3387C41.7466 14.3102 41.9481 14.239 42.1785 14.1821C43.503 13.9258 45.2306 12.63 46.0081 11.2916C47.2318 9.24123 47.2462 5.76698 46.0368 3.53151C45.2162 1.99373 43.3158 0.669531 41.4587 0.299325C40.7388 0.156937 25.8093 -0.0139282 25.147 0.114221Z" fill="white"/>
<path d="M56.9335 0.156666C55.4651 0.34177 54.2413 0.797408 53.032 1.59477C51.0596 2.8905 49.8215 4.89815 49.2888 7.66046C49.0297 9.01314 49.0297 12.345 49.2888 13.6977C49.8647 16.6736 51.4771 18.8948 53.9102 20.0766C56.0553 21.1303 56.0265 21.116 63.3113 21.1872L69.8187 21.2299V18.8094V16.3888L63.9592 16.3461C58.1717 16.3033 58.0709 16.3033 57.3654 15.9759C55.4075 15.0788 54.5869 13.1993 54.7308 9.92441C54.8316 7.90252 55.1771 6.92005 56.1273 5.98029C57.3223 4.79848 57.3942 4.78424 64.0312 4.72729L69.8187 4.68457V2.33519V4.01996e-05L63.8872 0.0142785C60.6191 0.0285169 57.495 0.0997104 56.9335 0.156666Z" fill="white"/>
<path d="M73.4647 0.0997104C73.3208 0.156666 73.2776 2.40638 73.2776 10.6933V21.2299L80.6632 21.173C88.9413 21.116 89.0277 21.1018 91.2448 20.0481C93.5339 18.9802 95.2184 16.8587 96.0534 14.0109C96.3413 13.0427 96.3845 12.5586 96.3845 10.5367C96.3845 8.47207 96.3413 8.05914 96.0534 7.11939C94.9448 3.63091 92.6557 1.33848 89.4452 0.498395C88.9845 0.370246 87.9624 0.213621 87.1705 0.142427C85.6877 4.01996e-05 73.7815 -0.0284365 73.4647 0.0997104ZM87.6744 5.2826C88.6102 5.70976 89.4452 6.40745 89.9059 7.11939C90.669 8.34392 91.0001 10.2519 90.7122 11.9036C90.3522 13.8828 89.5316 15.0931 87.9912 15.8335L87.041 16.3033L83.0386 16.3461L79.0363 16.3888V10.6079V4.82696L82.9667 4.86967C86.8394 4.91239 86.897 4.91239 87.6744 5.2826Z" fill="white"/>
<path d="M99.7639 10.6793V21.216L102.615 21.1875L105.451 21.1448V19.7494C105.451 18.9947 105.436 14.2675 105.408 9.25547L105.379 0.142699H102.571H99.7639V10.6793Z" fill="white"/>
<path d="M108.838 1.92234V3.41741H113.517H118.196V12.1742V20.931H119.779H121.363V12.3451C121.363 7.63206 121.363 3.68794 121.363 3.58827C121.363 3.46012 122.4 3.41741 126.042 3.41741H130.721V1.92234V0.427282H119.779H108.838V1.92234Z" fill="#EEDE37"/>
<path d="M140.726 0.583634C137.804 1.01079 135.327 2.74792 134.075 5.26817C133.11 7.17615 132.837 8.61426 132.923 11.106C132.981 12.9571 133.038 13.313 133.456 14.5803C134.478 17.5704 136.306 19.4641 139.171 20.4609L140.294 20.8595L146.744 20.9023L153.194 20.945L153.151 19.4784L153.108 18.0118L146.917 17.9406C141.014 17.8694 140.697 17.8552 139.978 17.5704C137.933 16.7303 136.378 14.7369 136.162 12.6438L136.119 12.1739H144.426H152.733L152.776 10.7073L152.82 9.255H144.426C136.494 9.255 136.033 9.24076 136.09 8.9987C136.134 8.87056 136.206 8.50035 136.263 8.1871C136.522 6.6778 137.89 4.86948 139.33 4.14331C140.625 3.48833 141.36 3.41714 147.464 3.41714H153.18V1.92207V0.427008L147.392 0.441246C144.196 0.455485 141.201 0.51244 140.726 0.583634Z" fill="#EEDE37"/>
<path d="M163.62 0.654364C162.022 0.9249 160.107 1.87889 158.984 2.94679C156.825 5.0114 155.817 7.77371 155.961 11.248C156.033 13.2271 156.307 14.2808 157.185 16.0891C158.164 18.0968 160.41 19.9051 162.713 20.5601C163.908 20.9018 166.442 21.1154 168.011 21.0157C168.76 20.973 170.891 20.9303 172.733 20.9303H176.073V19.4352V17.9401H170.257C164.873 17.9401 164.369 17.9259 163.519 17.6554C161.461 17.0289 159.92 15.3345 159.315 12.9993C159.028 11.9029 159.013 9.6105 159.301 8.42869C159.733 6.64886 160.928 5.0114 162.368 4.22828C163.75 3.48786 164.426 3.41667 170.502 3.41667H176.073V1.92161V0.426545L170.43 0.440783C166.255 0.455022 164.47 0.497738 163.62 0.654364Z" fill="#EEDE37"/>
<path d="M179.376 10.6791V20.931H180.96H182.543V16.517V12.103L190.145 12.1315L197.732 12.1742L197.775 16.5455L197.804 20.931H199.402H201L200.914 12.8434C200.87 8.40095 200.827 3.78761 200.827 2.59156V0.42728H199.316H197.804V4.84128V9.25527H190.174H182.543L182.514 4.86975L182.471 0.498474L180.931 0.455759L179.376 0.413042V10.6791Z" fill="#EEDE37"/>
<path d="M56.2884 10.6074V12.672H62.839H69.3896V10.6074V8.5428H62.839H56.2884V10.6074Z" fill="white"/>
</svg>
