<svg width="46" height="46" viewBox="0 0 46 46" fill="none" xmlns="http://www.w3.org/2000/svg">
<path opacity="0.2" d="M31.153 5.14943H14.1606C11.9072 5.14943 9.74617 6.0717 8.15282 7.71333C6.55947 9.35497 5.66433 11.5815 5.66433 13.9031V31.4105C5.66433 33.7321 6.55947 35.9587 8.15282 37.6003C9.74617 39.2419 11.9072 40.1642 14.1606 40.1642H31.153C33.4064 40.1642 35.5674 39.2419 37.1608 37.6003C38.7541 35.9587 39.6493 33.7321 39.6493 31.4105V13.9031C39.6493 11.5815 38.7541 9.35497 37.1608 7.71333C35.5674 6.0717 33.4064 5.14943 31.153 5.14943ZM22.6568 29.9516C21.2565 29.9516 19.8876 29.5237 18.7232 28.7222C17.5589 27.9206 16.6514 26.7813 16.1155 25.4484C15.5797 24.1155 15.4395 22.6487 15.7126 21.2337C15.9858 19.8186 16.6602 18.5188 17.6503 17.4987C18.6405 16.4785 19.9021 15.7837 21.2755 15.5022C22.6489 15.2208 24.0725 15.3652 25.3663 15.9174C26.66 16.4695 27.7658 17.4045 28.5438 18.6041C29.3217 19.8037 29.737 21.2141 29.737 22.6568C29.737 24.5915 28.991 26.447 27.6632 27.815C26.3354 29.183 24.5346 29.9516 22.6568 29.9516Z" fill="#FFD900"/>
<path d="M31.1527 3.69049H14.1603C11.5322 3.69338 9.01264 4.77028 7.15434 6.6849C5.29604 8.59951 4.25081 11.1955 4.248 13.9031V31.4105C4.25081 34.1182 5.29604 36.7141 7.15434 38.6287C9.01264 40.5434 11.5322 41.6203 14.1603 41.6232H31.1527C33.7808 41.6203 36.3004 40.5434 38.1587 38.6287C40.017 36.7141 41.0622 34.1182 41.065 31.4105V13.9031C41.0622 11.1955 40.017 8.59951 38.1587 6.6849C36.3004 4.77028 33.7808 3.69338 31.1527 3.69049ZM38.2329 31.4105C38.2329 33.3452 37.487 35.2006 36.1592 36.5687C34.8314 37.9367 33.0305 38.7053 31.1527 38.7053H14.1603C12.2825 38.7053 10.4816 37.9367 9.15382 36.5687C7.82602 35.2006 7.08008 33.3452 7.08008 31.4105V13.9031C7.08008 11.9684 7.82602 10.113 9.15382 8.74496C10.4816 7.37693 12.2825 6.60838 14.1603 6.60838H31.1527C33.0305 6.60838 34.8314 7.37693 36.1592 8.74496C37.487 10.113 38.2329 11.9684 38.2329 13.9031V31.4105ZM22.6565 13.9031C20.9761 13.9031 19.3334 14.4165 17.9362 15.3784C16.539 16.3403 15.4501 17.7074 14.807 19.3069C14.1639 20.9065 13.9957 22.6665 14.3235 24.3646C14.6514 26.0626 15.4605 27.6224 16.6488 28.8466C17.837 30.0708 19.3509 30.9046 20.999 31.2423C22.6471 31.5801 24.3554 31.4067 25.9079 30.7442C27.4603 30.0816 28.7873 28.9596 29.7209 27.5201C30.6544 26.0806 31.1527 24.3881 31.1527 22.6568C31.1504 20.3359 30.2545 18.1108 28.6617 16.4697C27.0688 14.8286 24.9091 13.9055 22.6565 13.9031ZM22.6565 28.4926C21.5362 28.4926 20.4411 28.1504 19.5097 27.5091C18.5782 26.8679 17.8522 25.9564 17.4235 24.8901C16.9948 23.8237 16.8826 22.6503 17.1012 21.5183C17.3197 20.3863 17.8592 19.3464 18.6513 18.5303C19.4435 17.7141 20.4527 17.1583 21.5515 16.9332C22.6502 16.708 23.7891 16.8236 24.8241 17.2652C25.8591 17.7069 26.7437 18.4549 27.3661 19.4146C27.9885 20.3743 28.3207 21.5026 28.3207 22.6568C28.3207 24.2046 27.7239 25.6889 26.6617 26.7833C25.5994 27.8778 24.1587 28.4926 22.6565 28.4926ZM33.9848 13.1737C33.9848 13.6065 33.8602 14.0296 33.6268 14.3895C33.3934 14.7494 33.0617 15.0299 32.6736 15.1955C32.2855 15.3611 31.8584 15.4045 31.4464 15.32C31.0343 15.2356 30.6559 15.0272 30.3588 14.7211C30.0618 14.415 29.8595 14.0251 29.7775 13.6006C29.6955 13.1761 29.7376 12.7361 29.8984 12.3362C30.0591 11.9363 30.3314 11.5945 30.6807 11.354C31.03 11.1136 31.4406 10.9852 31.8607 10.9852C32.4241 10.9852 32.9643 11.2158 33.3627 11.6262C33.761 12.0366 33.9848 12.5932 33.9848 13.1737Z" fill="#FFD900"/>
</svg>
