<svg width="130" height="36" viewBox="0 0 130 36" fill="none" xmlns="http://www.w3.org/2000/svg">
<path d="M16.8547 0.000488911H29.8547L13 35.0704H0L16.8547 0.000488911Z" fill="#EEC937"/>
<path d="M33.6332 0H46.6332L29.7785 35.0699H16.7785L33.6332 0Z" fill="#EEC937"/>
<path d="M89.7471 8.89225C92.7471 3.42666 98.5027 0.000305569 104.737 0.000305569H130L126.296 8.31428H103.618C101.731 8.31428 100.016 9.41053 99.2234 11.1231C98.7365 12.1756 99.5051 13.3783 100.665 13.3783H116.961C121.272 13.3783 124.329 17.5831 123 21.6842L122.458 23.3589C120.195 30.341 113.691 35.0702 106.352 35.0702H78.302L82.0811 27.1341H106.328C108.57 27.1341 110.628 25.8971 111.681 23.918C112.344 22.6693 111.439 21.1632 110.025 21.1632H93.5634C89.5243 21.1632 86.6814 17.1933 87.9821 13.3694L88.6854 11.3017C88.9681 10.4706 89.3247 9.66184 89.7471 8.89225Z" fill="white"/>
<path d="M50.5641 0.000366683H63.5642H80.3549C81.2929 0.000366683 82.2193 0.207784 83.0678 0.607765C85.411 1.7124 86.6824 4.28738 86.135 6.81937L85.5013 9.75037C85.3383 10.504 85.0942 11.2377 84.7732 11.9387L84.6369 12.2363C82.6891 16.4896 78.9004 19.6165 74.3548 20.7222L73.1631 21.0121L76.1863 34.7679H65.1514L62.2793 21.9946H50.5641L44.5932 34.7679L33.7094 35.0702L50.5641 0.000366683Z" fill="white"/>
<path d="M56.611 7.86004H72.7481C74.5514 7.86004 75.5285 9.97107 74.3615 11.3458L73.7046 12.1198C72.4983 13.5409 70.7284 14.3601 68.8643 14.3601H53.7389L56.611 7.86004Z" fill="black"/>
</svg>
