<svg width="96" height="26" viewBox="0 0 96 26" fill="none" xmlns="http://www.w3.org/2000/svg">
<path d="M12.4466 0H22.0467L9.60008 25.8979H0L12.4466 0Z" fill="#EEC937"/>
<path d="M24.8372 0H34.4373L21.9906 25.8979H12.3906L24.8372 0Z" fill="#EEC937"/>
<path d="M66.2748 6.5664C68.4902 2.53024 72.7405 0 77.3447 0H96.0001L93.2652 6.13959H76.518C75.1245 6.13959 73.8579 6.94913 73.2728 8.21381C72.9131 8.99106 73.4808 9.87915 74.3372 9.87915H86.371C89.5546 9.87915 91.8125 12.9843 90.8311 16.0128L90.4304 17.2495C88.7596 22.4056 83.9568 25.8979 78.5368 25.8979H57.823L60.6138 20.0374H78.5195C80.1748 20.0374 81.6949 19.1239 82.472 17.6624C82.9622 16.7402 82.2939 15.628 81.2495 15.628H69.093C66.1103 15.628 64.0109 12.6965 64.9714 9.8726L65.4908 8.34571C65.6995 7.73195 65.9629 7.13471 66.2748 6.5664Z" fill="white"/>
<path d="M37.3403 0H46.9404H59.3398C60.0325 0 60.7166 0.153171 61.3432 0.448542C63.0735 1.26428 64.0125 3.16581 63.6082 5.0356L63.1402 7.20004C63.0199 7.75656 62.8396 8.2984 62.6025 8.81608L62.5019 9.03581C61.0635 12.1768 58.2657 14.4858 54.9089 15.3023L54.0289 15.5164L56.2614 25.6746H48.1125L45.9916 16.242H37.3403L32.931 25.6746L24.8937 25.8979L37.3403 0Z" fill="white"/>
<path d="M41.8053 5.8045H53.722C55.0537 5.8045 55.7752 7.36343 54.9135 8.37865L54.4283 8.95016C53.5375 9.9996 52.2305 10.6045 50.854 10.6045H39.6844L41.8053 5.8045Z" fill="black"/>
</svg>
