<svg width="28" height="32" viewBox="0 0 28 32" fill="none" xmlns="http://www.w3.org/2000/svg">
<path d="M26.1723 13.9958L3.25529 0.293993C2.86873 0.0660449 2.42504 -0.0331079 1.98334 0.00974436C1.54163 0.0525966 1.12287 0.235419 0.782853 0.533855C0.442837 0.832292 0.197706 1.23217 0.0801181 1.68022C-0.0374697 2.12827 -0.0219315 2.60321 0.124663 3.04178L4.30292 15.9962L0.124663 28.9521C0.00838306 29.2969 -0.0272624 29.6658 0.0207173 30.028C0.068697 30.3902 0.198902 30.735 0.400408 31.0336C0.601913 31.3321 0.868841 31.5757 1.17879 31.7439C1.48874 31.912 1.83268 31.9999 2.18174 32C2.56096 31.9992 2.93356 31.8958 3.26347 31.6999L26.1696 17.9753C26.5074 17.777 26.7889 17.4882 26.985 17.1384C27.1811 16.7886 27.2848 16.3904 27.2855 15.9848C27.2862 15.5791 27.1838 15.1806 26.9889 14.83C26.794 14.4795 26.5136 14.1896 26.1764 13.9901L26.1723 13.9958ZM2.18174 29.7138C2.18232 29.7081 2.18232 29.7023 2.18174 29.6966L6.23859 17.1394H14.1859C14.4753 17.1394 14.7529 17.0189 14.9575 16.8046C15.1622 16.5902 15.2772 16.2994 15.2772 15.9962C15.2772 15.6931 15.1622 15.4023 14.9575 15.1879C14.7529 14.9736 14.4753 14.8531 14.1859 14.8531H6.23859L2.18992 2.30161C2.18858 2.29352 2.1858 2.28576 2.18174 2.27874L25.0987 15.972L2.18174 29.7138Z" fill="#A2A2A2"/>
</svg>
